<?xml version="1.0" encoding="UTF-8" standalone="no"?>
<svg
   viewBox="0 0 793.7007874015749 1122.5196850393702"
   width="793.7007874015749"
   height="1122.5196850393702"
   version="1.1"
   id="svg782"
   sodipodi:docname="Avoinics Main Breaker Laser DXF v2 Sheet1.svg"
   inkscape:version="1.3 (0e150ed6c4, 2023-07-21)"
   xmlns:inkscape="http://www.inkscape.org/namespaces/inkscape"
   xmlns:sodipodi="http://sodipodi.sourceforge.net/DTD/sodipodi-0.dtd"
   xmlns="http://www.w3.org/2000/svg"
   xmlns:svg="http://www.w3.org/2000/svg">
  <sodipodi:namedview
     id="namedview782"
     pagecolor="#ffffff"
     bordercolor="#000000"
     borderopacity="0.25"
     inkscape:showpageshadow="2"
     inkscape:pageopacity="0.0"
     inkscape:pagecheckerboard="0"
     inkscape:deskcolor="#d1d1d1"
     inkscape:zoom="8"
     inkscape:cx="169.8125"
     inkscape:cy="221.3125"
     inkscape:window-width="1920"
     inkscape:window-height="1017"
     inkscape:window-x="1912"
     inkscape:window-y="-8"
     inkscape:window-maximized="1"
     inkscape:current-layer="g782" />
  <desc
     id="desc1">Avoinics Main Breaker Laser DXF v2 Sheet1.dxf - scale = 25.400000, origin = (0.000000, 0.000000), method = manual</desc>
  <defs
     id="defs4">
    <rect
       x="280.25061"
       y="240.61188"
       width="28.762244"
       height="13.293474"
       id="rect3" />
    <rect
       x="124.23356"
       y="165.32248"
       width="69.246912"
       height="31.420939"
       id="rect2" />
    <rect
       x="149.49116"
       y="194.44727"
       width="58.249587"
       height="22.719756"
       id="rect1" />
    <marker
       id="DistanceX"
       orient="auto"
       refX="0.0"
       refY="0.0"
       style="overflow:visible">
      <path
         d="M 3,-3 L -3,3 M 0,-5 L  0,5"
         style="stroke:#000000; stroke-width:0.5"
         id="path1" />
    </marker>
    <pattern
       id="Hatch"
       patternUnits="userSpaceOnUse"
       width="8"
       height="8"
       x="0"
       y="0"
       inkscape:label="Hatch">
      <path
         d="M8 4 l-4,4"
         stroke="#000000"
         stroke-width="0.25"
         linecap="square"
         id="path2" />
      <path
         d="M6 2 l-4,4"
         stroke="#000000"
         stroke-width="0.25"
         linecap="square"
         id="path3" />
      <path
         d="M4 0 l-4,4"
         stroke="#000000"
         stroke-width="0.25"
         linecap="square"
         id="path4" />
    </pattern>
    <symbol
       id="*Model_Space" />
    <symbol
       id="*Paper_Space" />
    <symbol
       id="*Paper_Space0" />
    <rect
       x="124.23356"
       y="165.32248"
       width="69.24691"
       height="31.420938"
       id="rect2-7" />
    <rect
       x="124.23356"
       y="165.32248"
       width="69.24691"
       height="31.420938"
       id="rect2-7-3" />
    <rect
       x="124.23356"
       y="165.32248"
       width="69.24691"
       height="31.420938"
       id="rect2-7-3-5" />
    <rect
       x="124.23356"
       y="165.32248"
       width="69.24691"
       height="31.420938"
       id="rect2-7-3-5-2" />
    <rect
       x="124.23356"
       y="165.32248"
       width="69.24691"
       height="31.420938"
       id="rect2-7-3-5-2-8" />
    <rect
       x="124.23356"
       y="165.32248"
       width="69.24691"
       height="31.420938"
       id="rect2-7-3-5-2-8-2" />
  </defs>
  <g
     inkscape:groupmode="layer"
     inkscape:label="0"
     id="g4" />
  <g
     inkscape:groupmode="layer"
     inkscape:label="Visible"
     id="g782">
    <path
       d="m 687.3551,261.07117 a 12,12 0 0 0 12,-12"
       style="fill:none;stroke:#000000"
       id="path5" />
    <path
       d="m 284.01114,177.07117 a 19.056,19.056 0 0 0 -38.112,0 19.056,19.056 0 0 0 38.112,0 z"
       style="fill:none;stroke:#000000"
       id="path6" />
    <path
       d="m 133.91514,137.71117 a 7.2,7.2 0 0 0 -14.4,0 7.2,7.2 0 0 0 14.4,0 z"
       style="fill:none;stroke:#000000"
       id="path7" />
    <path
       d="m 679.1951,216.43117 a 7.2,7.2 0 0 0 -14.4,0 7.2,7.2 0 0 0 14.4,0 z"
       style="fill:none;stroke:#000000"
       id="path8" />
    <path
       d="m 552.81114,177.07117 a 19.056,19.056 0 0 0 -38.112,0 19.056,19.056 0 0 0 38.112,0 z"
       style="fill:none;stroke:#000000"
       id="path9" />
    <path
       d="m 620.0111,177.07117 a 19.056,19.056 0 0 0 -38.11196,0 19.056,19.056 0 0 0 38.11196,0 z"
       style="fill:none;stroke:#000000"
       id="path10" />
    <path
       style="fill:none;stroke:#000000"
       d="m 179.275,162.464 v 29.215"
       id="path11" />
    <path
       d="m 216.23514,162.46382 a 23.556,23.556 0 0 0 -36.96,0"
       style="fill:none;stroke:#000000"
       id="path12" />
    <path
       style="fill:none;stroke:#000000"
       d="M 216.235,191.679 V 162.464"
       id="path13" />
    <path
       d="m 179.27514,191.67853 a 23.556,23.556 0 0 0 36.96,0"
       style="fill:none;stroke:#000000"
       id="path14" />
    <path
       d="m 351.21114,177.07117 a 19.056,19.056 0 0 0 -38.112,0 19.056,19.056 0 0 0 38.112,0 z"
       style="fill:none;stroke:#000000"
       id="path15" />
    <path
       d="m 133.91514,216.43117 a 7.2,7.2 0 0 0 -14.4,0 7.2,7.2 0 0 0 14.4,0 z"
       style="fill:none;stroke:#000000"
       id="path16" />
    <path
       d="m 679.1951,137.71117 a 7.2,7.2 0 0 0 -14.4,0 7.2,7.2 0 0 0 14.4,0 z"
       style="fill:none;stroke:#000000"
       id="path17" />
    <path
       d="m 485.61114,177.07117 a 19.056,19.056 0 0 0 -38.112,0 19.056,19.056 0 0 0 38.112,0 z"
       style="fill:none;stroke:#000000"
       id="path18" />
    <path
       d="m 418.41114,177.07117 a 19.056,19.056 0 0 0 -38.112,0 19.056,19.056 0 0 0 38.112,0 z"
       style="fill:none;stroke:#000000"
       id="path19" />
    <path
       style="fill:none;stroke:#000000"
       d="m 699.36,249.071 v -144"
       id="path20" />
    <path
       d="m 699.3551,105.07117 a 12,12 0 0 0 -12,-12"
       style="fill:none;stroke:#000000"
       id="path21" />
    <path
       style="fill:none;stroke:#000000"
       d="M 687.36,93.071 H 111.355"
       id="path22" />
    <path
       d="m 111.35514,93.07117 a 12,12 0 0 0 -12,12"
       style="fill:none;stroke:#000000"
       id="path23" />
    <path
       style="fill:none;stroke:#000000"
       d="m 99.355,105.071 v 144"
       id="path24" />
    <path
       d="m 99.35514,249.07117 a 12,12 0 0 0 12,12"
       style="fill:none;stroke:#000000"
       id="path25" />
    <path
       style="fill:none;stroke:#000000"
       d="M 111.355,261.071 H 687.36"
       id="path26" />
    <g
       id="text2"
       style="white-space:pre;shape-padding:0.362549;fill:none;fill-opacity:1;stroke-width:0.45009938;stroke:#000000;stroke-opacity:1"
       transform="translate(38.672844,43.756361)"
       aria-label="AVIONICS&#10;MASTER">
      <path
         style="font-family:'Arial Rounded MT Bold';-inkscape-font-specification:'Arial Rounded MT Bold, ';text-align:center;text-anchor:middle;fill:none;fill-opacity:1;stroke-width:0.45009938;stroke:#000000;stroke-opacity:1"
         d="m 135.64258,175.66085 -0.41016,-1.07812 h -3.49219 l -0.41015,1.10156 q -0.24024,0.64453 -0.41016,0.87305 -0.16992,0.22266 -0.55664,0.22266 -0.32812,0 -0.58008,-0.24024 -0.25195,-0.24023 -0.25195,-0.54492 0,-0.17578 0.0586,-0.36328 0.0586,-0.1875 0.19336,-0.52149 l 2.19727,-5.57812 q 0.0937,-0.24024 0.22265,-0.57422 0.13477,-0.33984 0.28125,-0.5625 0.15235,-0.22266 0.39258,-0.35742 0.2461,-0.14063 0.60352,-0.14063 0.36328,0 0.60351,0.14063 0.2461,0.13476 0.39258,0.35156 0.15235,0.2168 0.25196,0.46875 0.10546,0.24609 0.26367,0.66211 l 2.24414,5.54297 q 0.26367,0.63281 0.26367,0.91992 0,0.29883 -0.25195,0.55078 -0.2461,0.2461 -0.59766,0.2461 -0.20508,0 -0.35156,-0.0762 -0.14649,-0.0703 -0.2461,-0.19336 -0.0996,-0.1289 -0.21679,-0.38671 -0.11133,-0.26368 -0.19336,-0.4629 z m -3.44531,-2.38476 h 2.5664 l -1.29492,-3.54492 z m 7.24218,-4.23633 1.94532,5.75977 1.95117,-5.80078 q 0.15234,-0.45704 0.22851,-0.63282 0.0762,-0.18164 0.25196,-0.32226 0.17578,-0.14649 0.48046,-0.14649 0.22266,0 0.41016,0.11133 0.19336,0.11133 0.29883,0.29883 0.11133,0.18164 0.11133,0.36914 0,0.12891 -0.0352,0.28125 -0.0352,0.14648 -0.0879,0.29297 -0.0527,0.14062 -0.10547,0.29297 l -2.08008,5.61328 q -0.11132,0.32226 -0.22265,0.61523 -0.11133,0.28711 -0.25782,0.50977 -0.14648,0.2168 -0.39257,0.35742 -0.24024,0.14063 -0.5918,0.14063 -0.35156,0 -0.59766,-0.14063 -0.24023,-0.13477 -0.39257,-0.35742 -0.14649,-0.22852 -0.25782,-0.51563 -0.11133,-0.28711 -0.22265,-0.60937 l -2.04493,-5.56641 q -0.0527,-0.15234 -0.11132,-0.29883 -0.0527,-0.14648 -0.0937,-0.3164 -0.0352,-0.16992 -0.0352,-0.28711 0,-0.29883 0.24023,-0.54492 0.24024,-0.2461 0.60352,-0.2461 0.44531,0 0.62695,0.27539 0.1875,0.26953 0.38086,0.86719 z m 7.05469,6.67969 v -6.76758 q 0,-0.52734 0.24023,-0.79102 0.24024,-0.26367 0.6211,-0.26367 0.39258,0 0.63281,0.26367 0.24609,0.25782 0.24609,0.79102 v 6.76758 q 0,0.5332 -0.24609,0.79687 -0.24023,0.26368 -0.63281,0.26368 -0.375,0 -0.6211,-0.26368 -0.24023,-0.26953 -0.24023,-0.79687 z m 7.46484,-7.82227 q 1.33594,0 2.29102,0.54492 0.96094,0.53907 1.45312,1.54102 0.49219,0.99609 0.49219,2.34375 0,0.99609 -0.26953,1.81055 -0.26953,0.81445 -0.80859,1.41211 -0.53907,0.59765 -1.32422,0.91406 -0.78516,0.31641 -1.79883,0.31641 -1.00781,0 -1.80469,-0.32227 -0.79687,-0.32813 -1.33008,-0.91992 -0.5332,-0.5918 -0.80859,-1.42383 -0.26953,-0.83203 -0.26953,-1.79883 0,-0.99023 0.28125,-1.8164 0.28711,-0.82618 0.82617,-1.40625 0.53906,-0.58008 1.3125,-0.88477 0.77344,-0.31055 1.75781,-0.31055 z m 2.47266,4.41797 q 0,-0.94336 -0.30469,-1.63476 -0.30468,-0.69141 -0.87304,-1.04297 -0.5625,-0.35742 -1.29493,-0.35742 -0.52148,0 -0.96679,0.19921 -0.43946,0.19336 -0.76172,0.56836 -0.31641,0.375 -0.50391,0.96094 -0.18164,0.58008 -0.18164,1.30664 0,0.73242 0.18164,1.32422 0.1875,0.5918 0.52149,0.98438 0.33984,0.38671 0.77343,0.58007 0.43946,0.19336 0.96094,0.19336 0.66797,0 1.22461,-0.33398 0.5625,-0.33399 0.89063,-1.03125 0.33398,-0.69727 0.33398,-1.7168 z m 5.51953,-3.375 3.3457,5.0625 v -5.10937 q 0,-0.49805 0.21094,-0.74414 0.2168,-0.25196 0.58008,-0.25196 0.375,0 0.5918,0.25196 0.21679,0.24609 0.21679,0.74414 v 6.75586 q 0,1.13086 -0.9375,1.13086 -0.23437,0 -0.42187,-0.0703 -0.1875,-0.0644 -0.35156,-0.21093 -0.16407,-0.14649 -0.30469,-0.33985 -0.14063,-0.19922 -0.28125,-0.4043 l -3.26367,-5.0039 v 5.0332 q 0,0.49219 -0.22852,0.74414 -0.22851,0.25196 -0.58594,0.25196 -0.36914,0 -0.59179,-0.25196 -0.22266,-0.25781 -0.22266,-0.74414 v -6.62695 q 0,-0.42188 0.0937,-0.66211 0.11133,-0.26367 0.36914,-0.42774 0.25781,-0.16992 0.55664,-0.16992 0.23438,0 0.39844,0.0762 0.16992,0.0762 0.29297,0.20508 0.1289,0.12891 0.25781,0.33399 0.13477,0.20508 0.27539,0.42773 z m 6.91992,6.7793 v -6.76758 q 0,-0.52734 0.24024,-0.79102 0.24023,-0.26367 0.62109,-0.26367 0.39258,0 0.63281,0.26367 0.2461,0.25782 0.2461,0.79102 v 6.76758 q 0,0.5332 -0.2461,0.79687 -0.24023,0.26368 -0.63281,0.26368 -0.375,0 -0.62109,-0.26368 -0.24024,-0.26953 -0.24024,-0.79687 z m 11.00391,-1.79883 q 0,0.41016 -0.20508,0.89063 -0.19922,0.4746 -0.63281,0.9375 -0.43359,0.45703 -1.10742,0.74414 -0.67383,0.28711 -1.57032,0.28711 -0.67968,0 -1.23632,-0.12891 -0.55664,-0.12891 -1.01368,-0.39844 -0.45117,-0.27539 -0.83203,-0.7207 -0.33984,-0.4043 -0.58007,-0.90235 -0.24024,-0.5039 -0.36329,-1.07226 -0.11718,-0.56836 -0.11718,-1.20703 0,-1.03711 0.29882,-1.85742 0.30469,-0.82032 0.86719,-1.40039 0.5625,-0.58594 1.31836,-0.89063 0.75586,-0.30469 1.61133,-0.30469 1.04297,0 1.85742,0.41602 0.81445,0.41601 1.24805,1.03125 0.43359,0.60937 0.43359,1.1543 0,0.29882 -0.21094,0.52734 -0.21093,0.22851 -0.50976,0.22851 -0.33399,0 -0.50391,-0.1582 -0.16406,-0.1582 -0.36914,-0.54492 -0.33984,-0.63867 -0.80273,-0.95508 -0.45703,-0.3164 -1.13086,-0.3164 -1.07227,0 -1.71094,0.81445 -0.63281,0.81445 -0.63281,2.31445 0,1.00195 0.28125,1.66992 0.28125,0.66211 0.79687,0.99024 0.51563,0.32812 1.20703,0.32812 0.75,0 1.26563,-0.36914 0.52148,-0.375 0.78516,-1.0957 0.11132,-0.33984 0.27539,-0.55078 0.16406,-0.2168 0.52734,-0.2168 0.31055,0 0.5332,0.2168 0.22266,0.21679 0.22266,0.53906 z m 8.0918,0.13477 q 0,0.77929 -0.4043,1.40039 -0.39844,0.62109 -1.17188,0.97265 -0.77343,0.35157 -1.83398,0.35157 -1.27148,0 -2.09766,-0.48047 -0.58593,-0.34571 -0.95507,-0.91993 -0.36329,-0.58007 -0.36329,-1.125 0,-0.3164 0.2168,-0.53906 0.22266,-0.22851 0.5625,-0.22851 0.27539,0 0.46289,0.17578 0.19336,0.17578 0.32813,0.52148 0.16406,0.41016 0.35156,0.68555 0.19336,0.27539 0.53906,0.45703 0.34571,0.17578 0.90821,0.17578 0.77343,0 1.2539,-0.35742 0.48633,-0.36328 0.48633,-0.90234 0,-0.42774 -0.26367,-0.69141 -0.25781,-0.26953 -0.67383,-0.41016 -0.41016,-0.14062 -1.10156,-0.29882 -0.92578,-0.2168 -1.55274,-0.50391 -0.62109,-0.29297 -0.99023,-0.79102 -0.36328,-0.5039 -0.36328,-1.24804 0,-0.70899 0.38672,-1.25977 0.38671,-0.55078 1.11914,-0.84375 0.73242,-0.29883 1.72265,-0.29883 0.79102,0 1.36524,0.19922 0.58008,0.19336 0.96093,0.52149 0.38086,0.32226 0.55665,0.67968 0.17578,0.35743 0.17578,0.69727 0,0.31055 -0.22266,0.5625 -0.2168,0.24609 -0.54492,0.24609 -0.29883,0 -0.45703,-0.14648 -0.15235,-0.15235 -0.33399,-0.49219 -0.23437,-0.48633 -0.5625,-0.75586 -0.32812,-0.27539 -1.05468,-0.27539 -0.67383,0 -1.08985,0.29883 -0.41015,0.29297 -0.41015,0.70898 0,0.25782 0.14062,0.44532 0.14063,0.1875 0.38672,0.32226 0.24609,0.13477 0.49805,0.21094 0.25195,0.0762 0.83203,0.22266 0.72656,0.16992 1.3125,0.375 0.59179,0.20507 1.00195,0.49804 0.41602,0.29297 0.64453,0.74414 0.23438,0.44532 0.23438,1.09571 z"
         id="path27" />
      <path
         style="font-family:'Arial Rounded MT Bold';-inkscape-font-specification:'Arial Rounded MT Bold, ';text-align:center;text-anchor:middle;fill:none;fill-opacity:1;stroke-width:0.45009938;stroke:#000000;stroke-opacity:1"
         d="M 137.3125,190.47265 135.93555,185 v 5.92968 q 0,0.49219 -0.22266,0.73829 -0.2168,0.24609 -0.58008,0.24609 -0.35156,0 -0.57422,-0.24024 -0.22265,-0.24609 -0.22265,-0.74414 v -6.79687 q 0,-0.5625 0.29297,-0.75586 0.29296,-0.19922 0.79101,-0.19922 h 0.53906 q 0.48633,0 0.70313,0.0879 0.22266,0.0879 0.32812,0.31641 0.10547,0.22851 0.24024,0.74414 l 1.24805,4.70508 1.24804,-4.70508 q 0.13477,-0.51563 0.24024,-0.74414 0.10547,-0.22852 0.32226,-0.31641 0.22266,-0.0879 0.70899,-0.0879 h 0.53906 q 0.49805,0 0.79101,0.19922 0.29297,0.19336 0.29297,0.75586 v 6.79687 q 0,0.49219 -0.22265,0.73829 -0.2168,0.24609 -0.58594,0.24609 -0.3457,0 -0.56836,-0.24609 -0.22266,-0.2461 -0.22266,-0.73829 V 185 l -1.37695,5.47265 q -0.13476,0.53321 -0.22266,0.78516 -0.082,0.24609 -0.31054,0.45117 -0.22852,0.20508 -0.63281,0.20508 -0.30469,0 -0.51563,-0.13477 -0.21094,-0.1289 -0.32812,-0.33398 -0.11719,-0.20508 -0.1875,-0.45117 -0.0645,-0.25196 -0.13477,-0.52149 z m 12.5918,0.32227 -0.41016,-1.07813 h -3.49219 l -0.41015,1.10157 q -0.24024,0.64453 -0.41016,0.87304 -0.16992,0.22266 -0.55664,0.22266 -0.32813,0 -0.58008,-0.24024 -0.25195,-0.24023 -0.25195,-0.54492 0,-0.17578 0.0586,-0.36328 0.0586,-0.1875 0.19336,-0.52148 l 2.19727,-5.57813 q 0.0937,-0.24023 0.22265,-0.57422 0.13477,-0.33984 0.28125,-0.5625 0.15235,-0.22265 0.39258,-0.35742 0.2461,-0.14062 0.60352,-0.14062 0.36328,0 0.60351,0.14062 0.2461,0.13477 0.39258,0.35156 0.15234,0.2168 0.25195,0.46875 0.10547,0.2461 0.26368,0.66211 l 2.24414,5.54297 q 0.26367,0.63281 0.26367,0.91992 0,0.29883 -0.25195,0.55079 -0.2461,0.24609 -0.59766,0.24609 -0.20508,0 -0.35156,-0.0762 -0.14649,-0.0703 -0.2461,-0.19336 -0.0996,-0.12891 -0.21679,-0.38672 -0.11133,-0.26367 -0.19336,-0.46289 z m -3.44532,-2.38477 h 2.56641 l -1.29492,-3.54492 z m 13.10743,0.7793 q 0,0.7793 -0.4043,1.40039 -0.39844,0.62109 -1.17188,0.97266 -0.77343,0.35156 -1.83398,0.35156 -1.27148,0 -2.09766,-0.48047 -0.58593,-0.3457 -0.95507,-0.91992 -0.36329,-0.58008 -0.36329,-1.125 0,-0.31641 0.2168,-0.53906 0.22266,-0.22852 0.5625,-0.22852 0.27539,0 0.46289,0.17578 0.19336,0.17578 0.32813,0.52149 0.16406,0.41015 0.35156,0.68554 0.19336,0.27539 0.53906,0.45703 0.3457,0.17579 0.9082,0.17579 0.77344,0 1.25391,-0.35743 0.48633,-0.36328 0.48633,-0.90234 0,-0.42773 -0.26367,-0.69141 -0.25782,-0.26953 -0.67383,-0.41015 -0.41016,-0.14063 -1.10156,-0.29883 -0.92578,-0.2168 -1.55274,-0.50391 -0.62109,-0.29297 -0.99023,-0.79101 -0.36328,-0.50391 -0.36328,-1.24805 0,-0.70898 0.38672,-1.25977 0.38671,-0.55078 1.11914,-0.84375 0.73242,-0.29882 1.72265,-0.29882 0.79102,0 1.36524,0.19922 0.58007,0.19335 0.96093,0.52148 0.38086,0.32227 0.55664,0.67969 0.17579,0.35742 0.17579,0.69726 0,0.31055 -0.22266,0.5625 -0.2168,0.2461 -0.54492,0.2461 -0.29883,0 -0.45703,-0.14649 -0.15235,-0.15234 -0.33399,-0.49219 -0.23437,-0.48632 -0.5625,-0.75585 -0.32812,-0.2754 -1.05469,-0.2754 -0.67382,0 -1.08984,0.29883 -0.41016,0.29297 -0.41016,0.70899 0,0.25781 0.14063,0.44531 0.14062,0.1875 0.38672,0.32227 0.24609,0.13476 0.49805,0.21093 0.25195,0.0762 0.83203,0.22266 0.72656,0.16992 1.3125,0.375 0.59179,0.20508 1.00195,0.49805 0.41602,0.29296 0.64453,0.74414 0.23438,0.44531 0.23438,1.0957 z m 7.05468,-4.57617 h -1.89843 v 6.24023 q 0,0.53906 -0.24024,0.80274 -0.24023,0.25781 -0.62109,0.25781 -0.38672,0 -0.63281,-0.26367 -0.24024,-0.26367 -0.24024,-0.79688 v -6.24023 h -1.89844 q -0.44531,0 -0.66211,-0.19336 -0.21679,-0.19922 -0.21679,-0.52149 0,-0.33398 0.22265,-0.52734 0.22852,-0.19336 0.65625,-0.19336 h 5.53125 q 0.45118,0 0.66797,0.19922 0.22266,0.19922 0.22266,0.52148 0,0.32227 -0.22266,0.52149 -0.22265,0.19336 -0.66797,0.19336 z m 7.58203,-0.0937 h -3.91992 v 2.10937 h 3.60938 q 0.39844,0 0.59179,0.18164 0.19922,0.17578 0.19922,0.46875 0,0.29297 -0.19336,0.48047 -0.19336,0.18164 -0.59765,0.18164 h -3.60938 v 2.44336 h 4.05469 q 0.41016,0 0.61523,0.19336 0.21094,0.1875 0.21094,0.50391 0,0.30469 -0.21094,0.49804 -0.20507,0.1875 -0.61523,0.1875 h -4.72852 q -0.56835,0 -0.82031,-0.25195 -0.24609,-0.25195 -0.24609,-0.81445 v -6.45703 q 0,-0.375 0.11133,-0.60938 0.11132,-0.24023 0.3457,-0.3457 0.24023,-0.11133 0.60937,-0.11133 h 4.59375 q 0.41602,0 0.61524,0.1875 0.20508,0.18164 0.20508,0.48047 0,0.30469 -0.20508,0.49219 -0.19922,0.18164 -0.61524,0.18164 z m 4.68165,3.57422 h -0.60938 v 2.75976 q 0,0.54492 -0.24023,0.80274 -0.24024,0.25781 -0.62696,0.25781 -0.41601,0 -0.64453,-0.26953 -0.22851,-0.26953 -0.22851,-0.79102 v -6.60937 q 0,-0.5625 0.25195,-0.81446 0.25195,-0.25195 0.81445,-0.25195 h 2.83008 q 0.58594,0 1.00195,0.0527 0.41602,0.0469 0.75,0.19921 0.4043,0.16993 0.71485,0.48633 0.31054,0.31641 0.46875,0.73828 0.16406,0.41602 0.16406,0.88477 0,0.96094 -0.54492,1.53516 -0.53906,0.57421 -1.64063,0.81445 0.46289,0.24609 0.88477,0.72656 0.42187,0.48047 0.75,1.02539 0.33398,0.53906 0.51562,0.97852 0.1875,0.43359 0.1875,0.59765 0,0.16993 -0.11132,0.33985 -0.10547,0.16406 -0.29297,0.25781 -0.1875,0.0996 -0.4336,0.0996 -0.29297,0 -0.49218,-0.14063 -0.19922,-0.13476 -0.34571,-0.3457 -0.14062,-0.21094 -0.38672,-0.62109 l -0.69726,-1.16016 q -0.375,-0.63867 -0.67383,-0.97266 -0.29297,-0.33398 -0.59766,-0.45703 -0.30468,-0.12304 -0.76757,-0.12304 z m 0.99609,-3.60938 h -1.60547 v 2.36133 h 1.55859 q 0.62696,0 1.05469,-0.10547 0.42774,-0.11133 0.65039,-0.36914 0.22852,-0.26367 0.22852,-0.7207 0,-0.35742 -0.18164,-0.62696 -0.18164,-0.27539 -0.50391,-0.41015 -0.30469,-0.12891 -1.20117,-0.12891 z"
         id="path28" />
    </g>
    <text
       xml:space="preserve"
       id="text2-4"
       style="font-style:normal;font-variant:normal;font-weight:normal;font-stretch:normal;font-size:12px;font-family:'Arial Rounded MT Bold';-inkscape-font-specification:'Arial Rounded MT Bold, Normal';font-variant-ligatures:normal;font-variant-caps:normal;font-variant-numeric:normal;font-variant-east-asian:normal;white-space:pre;shape-inside:url(#rect2-7);shape-padding:0.362549;display:inline;fill:#000000"
       x="41.021484"
       y="0"
       transform="translate(105.49738,43.890426)"><tspan
         x="147.56934"
         y="176.49945"
         id="tspan20"><tspan
           style="text-align:center;text-anchor:middle"
           id="tspan19">ATT&#10;</tspan></tspan><tspan
         x="150.54004"
         y="191.49945"
         id="tspan22"><tspan
           style="text-align:center;text-anchor:middle"
           id="tspan21">G5</tspan></tspan></text>
    <text
       xml:space="preserve"
       id="text2-4-3"
       style="font-style:normal;font-variant:normal;font-weight:normal;font-stretch:normal;font-size:12px;font-family:'Arial Rounded MT Bold';-inkscape-font-specification:'Arial Rounded MT Bold, Normal';font-variant-ligatures:normal;font-variant-caps:normal;font-variant-numeric:normal;font-variant-east-asian:normal;white-space:pre;shape-inside:url(#rect2-7-3);shape-padding:0.362549;display:inline;fill:#000000"
       x="50.663086"
       y="0"
       transform="translate(172.97826,45.87433)"><tspan
         x="148.41895"
         y="176.49945"
         id="tspan24"><tspan
           style="text-align:center;text-anchor:middle"
           id="tspan23">HSI&#10;</tspan></tspan><tspan
         x="150.54004"
         y="191.49945"
         id="tspan26"><tspan
           style="text-align:center;text-anchor:middle"
           id="tspan25">G5</tspan></tspan></text>
    <text
       xml:space="preserve"
       id="text2-4-3-3"
       style="font-style:normal;font-variant:normal;font-weight:normal;font-stretch:normal;font-size:12px;font-family:'Arial Rounded MT Bold';-inkscape-font-specification:'Arial Rounded MT Bold, Normal';font-variant-ligatures:normal;font-variant-caps:normal;font-variant-numeric:normal;font-variant-east-asian:normal;white-space:pre;shape-inside:url(#rect2-7-3-5);shape-padding:0.362549;display:inline;fill:#000000"
       x="68.551758"
       y="0"
       transform="translate(240.677,45.99518)"><tspan
         x="139.60059"
         y="176.49945"
         id="tspan28"><tspan
           style="text-align:center;text-anchor:middle"
           id="tspan27">COM 1&#10;</tspan></tspan><tspan
         x="146.10156"
         y="191.49945"
         id="tspan30"><tspan
           style="text-align:center;text-anchor:middle"
           id="tspan29">GPS</tspan></tspan></text>
    <text
       xml:space="preserve"
       id="text2-4-3-3-5"
       style="font-style:normal;font-variant:normal;font-weight:normal;font-stretch:normal;font-size:12px;font-family:'Arial Rounded MT Bold';-inkscape-font-specification:'Arial Rounded MT Bold, Normal';font-variant-ligatures:normal;font-variant-caps:normal;font-variant-numeric:normal;font-variant-east-asian:normal;white-space:pre;shape-inside:url(#rect2-7-3-5-2);shape-padding:0.362549;display:inline;fill:#000000"
       x="68.551758"
       y="0"
       transform="translate(308.80176,43.890426)"><tspan
         x="139.60059"
         y="176.49945"
         id="tspan32"><tspan
           style="text-align:center;text-anchor:middle"
           id="tspan31">COM 2&#10;</tspan></tspan><tspan
         x="141.17383"
         y="191.49945"
         id="tspan34"><tspan
           style="text-align:center;text-anchor:middle"
           id="tspan33">NAV 2</tspan></tspan></text>
    <text
       xml:space="preserve"
       id="text2-4-3-3-5-7"
       style="font-style:normal;font-variant:normal;font-weight:normal;font-stretch:normal;font-size:12px;font-family:'Arial Rounded MT Bold';-inkscape-font-specification:'Arial Rounded MT Bold, Normal';font-variant-ligatures:normal;font-variant-caps:normal;font-variant-numeric:normal;font-variant-east-asian:normal;text-align:center;white-space:pre;shape-inside:url(#rect2-7-3-5-2-8);shape-padding:0.362549;display:inline;fill:#000000"
       x="84.55957"
       y="0"
       transform="translate(374.80176,51.449481)"><tspan
         x="142.47461"
         y="176.49945"
         id="tspan35">XPDR</tspan></text>
    <text
       xml:space="preserve"
       id="text2-4-3-3-5-7-3"
       style="font-style:normal;font-variant:normal;font-weight:normal;font-stretch:normal;font-size:12px;font-family:'Arial Rounded MT Bold';-inkscape-font-specification:'Arial Rounded MT Bold, Normal';font-variant-ligatures:normal;font-variant-caps:normal;font-variant-numeric:normal;font-variant-east-asian:normal;text-align:center;white-space:pre;shape-inside:url(#rect2-7-3-5-2-8-2);shape-padding:0.362549;display:inline;fill:#000000"
       x="84.55957"
       y="0"
       transform="translate(442.33203,51.449481)"><tspan
         x="145.57715"
         y="176.49945"
         id="tspan36">GAD</tspan></text>
  </g>
</svg>
